<svg width="72" height="52" viewBox="0 0 72 52" fill="none" xmlns="http://www.w3.org/2000/svg">
<rect x="43.7199" y="8.94138" width="20.8632" height="19.8697" fill="#B751FF"/>
<path d="M25.7629 35.0656C24.2727 35.0656 22.9932 34.5387 21.9244 33.485C20.8708 32.4163 20.3439 31.1368 20.3439 29.6465C20.3439 28.1714 20.8708 26.9069 21.9244 25.8532C22.9932 24.7995 24.2727 24.2727 25.7629 24.2727C27.208 24.2727 28.4724 24.7995 29.5562 25.8532C30.64 26.9069 31.1819 28.1714 31.1819 29.6465C31.1819 30.64 30.926 31.5507 30.4142 32.3786C29.9175 33.1915 29.2627 33.8463 28.4498 34.343C27.637 34.8247 26.7414 35.0656 25.7629 35.0656ZM25.7629 10.7703C24.2727 10.7703 22.9932 10.2435 21.9244 9.18975C20.8708 8.13605 20.3439 6.85656 20.3439 5.35128C20.3439 3.8761 20.8708 2.61919 21.9244 1.58055C22.9932 0.52685 24.2727 0 25.7629 0C27.208 0 28.4724 0.52685 29.5562 1.58055C30.64 2.61919 31.1819 3.8761 31.1819 5.35128C31.1819 6.35982 30.926 7.27804 30.4142 8.10595C29.9175 8.9188 29.2627 9.56607 28.4498 10.0478C27.637 10.5295 26.7414 10.7703 25.7629 10.7703Z" fill="#FFCC47"/>
<path d="M9.66392 5.12549H0V21.2471V37.3687C0 40.3491 0.669851 42.9382 2.00955 45.1359C3.3342 47.3336 5.17817 49.0271 7.54147 50.2162C9.90476 51.4054 12.6519 52 15.7829 52C18.5677 52 21.0965 51.5108 23.3695 50.5323C25.6274 49.5389 27.4187 48.0336 28.7434 46.0165C30.068 43.9844 30.7228 41.4329 30.7078 38.3621H20.9761C20.946 39.5814 20.6976 40.6276 20.231 41.5006C19.7493 42.3587 19.0945 43.021 18.2666 43.4876C17.4237 43.9392 16.4302 44.165 15.2861 44.165C14.0819 44.165 13.0659 43.9091 12.238 43.3973C11.395 42.8705 10.7552 42.1028 10.3187 41.0942C9.88218 40.0857 9.66392 38.8438 9.66392 37.3687V5.12549Z" fill="#FFCC47"/>
<path d="M36.2171 49.3808V3.13852H54.4611C57.9684 3.13852 60.9564 3.80837 63.4251 5.14807C65.8938 6.47272 67.7754 8.31669 69.0699 10.68C70.3795 13.0282 71.0343 15.7377 71.0343 18.8085C71.0343 21.8793 70.372 24.5888 69.0473 26.937C67.7227 29.2853 65.8034 31.1142 63.2896 32.4238C60.7909 33.7334 57.7652 34.3882 54.2128 34.3882H42.5845V26.5532H52.6322C54.5138 26.5532 56.0643 26.2296 57.2835 25.5823C58.5179 24.92 59.4361 24.0093 60.0382 22.8502C60.6554 21.6761 60.964 20.3288 60.964 18.8085C60.964 17.2731 60.6554 15.9334 60.0382 14.7894C59.4361 13.6303 58.5179 12.7347 57.2835 12.1025C56.0492 11.4552 54.4837 11.1316 52.5871 11.1316H45.9939V49.3808H36.2171Z" fill="#FFCC47"/>
</svg>
